# File created by Blade
# Date/Time:  Tue Jan 27 18:35:12 2015
#---------------------------------------------------------
:version 1.10
:name HOM
:units
  mass 1.0
  length 1.000000
  angle deg
:documentation
     Acclaim Skeleton File
:root
   axis xyz
   order TX TY TZ RX RY RZ
   position 0.000000 0.000000 0.000000
   orientation 0 0 0
:bonedata
   begin
      id 1
      name Spine_dum
      direction 0.000000 1.000000 0.000000
      length 5.195262
      axis 0.0 0.0 0.0 xyz
   end
   begin
      id 2
      name LeftUpLeg_dum
      direction 1.000000 0.000000 0.000000
      length 3.351363
      axis 0.0 0.0 0.0 xyz
   end
   begin
      id 3
      name RightUpLeg_dum
      direction -1.000000 0.000000 0.000000
      length 3.351363
      axis 0.0 0.0 0.0 xyz
   end
   begin
      id 4
      name Spine
      direction 0.000000 1.000000 0.000000
      length 0.000000
      axis 0.0 0.0 0.0 xyz
      dof rx ry rz
   end
   begin
      id 5
      name Spine_dum1
      direction 0.000000 1.000000 0.000000
      length 15.653875
      axis 0.0 0.0 0.0 xyz
   end
   begin
      id 6
      name Spine_dum2
      direction 0.000000 1.000000 0.000000
      length 10.329768
      axis 0.0 0.0 0.0 xyz
   end
   begin
      id 7
      name Spine_dum3
      direction 0.000000 1.000000 0.000000
      length 10.329768
      axis 0.0 0.0 0.0 xyz
   end
   begin
      id 8
      name Head
      direction 0.000000 1.000000 0.000000
      length 4.527550
      axis 0.0 0.0 0.0 xyz
      dof rx ry rz
   end
   begin
      id 9
      name LeftShoulder
      direction 1.000000 0.000000 0.000000
      length 6.996006
      axis 0.0 0.0 -90.0 xyz
      dof rx ry rz
   end
   begin
      id 10
      name LeftArm
      direction 1.000000 0.000000 0.000000
      length 10.209302
      axis 0.0 0.0 -90.0 xyz
      dof rx ry rz
   end
   begin
      id 11
      name LeftForeArm
      direction 1.000000 0.000000 0.000000
      length 8.563163
      axis 0.0 0.0 -90.0 xyz
      dof ry rz rx
   end
   begin
      id 12
      name LeftHand
      direction 0.000000 0.000000 0.000000
      length 0.000000
      axis 0.0 0.0 -90.0 xyz
      dof rx ry rz
   end
   begin
      id 13
      name LeftHand_dum1
      direction 0.000000 0.000000 0.000000
      length 0.000000
      axis 0.0 0.0 -90.0 xyz
   end
   begin
      id 14
      name LeftHand_dum2
      direction 1.000000 0.000000 0.000000
      length 3.937000
      axis 0.0 0.0 -90.0 xyz
   end
   begin
      id 15
      name LeftHandThumb1
      direction 0.000000 0.000000 1.000000
      length 3.937000
      axis 0.0 0.0 -90.0 xyz
      dof rx rz ry
   end
   begin
      id 16
      name RightShoulder
      direction -1.000000 0.000000 0.000000
      length 6.996006
      axis 0.0 0.0 90.0 xyz
      dof rx ry rz
   end
   begin
      id 17
      name RightArm
      direction -1.000000 0.000000 0.000000
      length 10.209302
      axis 0.0 0.0 90.0 xyz
      dof rx ry rz
   end
   begin
      id 18
      name RightForeArm
      direction -1.000000 0.000000 0.000000
      length 8.563163
      axis 0.0 0.0 90.0 xyz
      dof ry rz rx
   end
   begin
      id 19
      name RightHand
      direction 0.000000 0.000000 0.000000
      length 0.000000
      axis 0.0 0.0 90.0 xyz
      dof rx ry rz
   end
   begin
      id 20
      name RightHand_dum1
      direction 0.000000 0.000000 0.000000
      length 0.000000
      axis 0.0 0.0 90.0 xyz
   end
   begin
      id 21
      name RightHand_dum2
      direction -1.000000 0.000000 0.000000
      length 3.937000
      axis 0.0 0.0 90.0 xyz
   end
   begin
      id 22
      name RightHandThumb1
      direction 0.000000 0.000000 1.000000
      length 3.937000
      axis 0.0 0.0 90.0 xyz
      dof rx rz ry
   end
   begin
      id 23
      name LeftUpLeg
      direction 0.000000 -1.000000 0.000000
      length 16.346831
      axis 0.0 0.0 0.0 xyz
      dof rx ry rz
   end
   begin
      id 24
      name LeftLeg
      direction 0.000000 -1.000000 0.000000
      length 13.959795
      axis 0.0 0.0 0.0 xyz
      dof rx ry rz
   end
   begin
      id 25
      name LeftFoot
      direction 0.000000 -0.258819 0.965926
      length 5.165550
      axis 15.0 0.0 0.0 xyz
      dof rx ry rz
   end
   begin
      id 26
      name LeftToeBase
      direction 0.000000 0.000000 1.000000
      length 2.952750
      axis 0.0 0.0 0.0 xyz
      dof rx ry rz
   end
   begin
      id 27
      name RightUpLeg
      direction 0.000000 -1.000000 0.000000
      length 16.346831
      axis 0.0 0.0 0.0 xyz
      dof rx ry rz
   end
   begin
      id 28
      name RightLeg
      direction 0.000000 -1.000000 0.000000
      length 13.959795
      axis 0.0 0.0 0.0 xyz
      dof rx ry rz
   end
   begin
      id 29
      name RightFoot
      direction 0.000000 -0.258819 0.965926
      length 5.165550
      axis 15.0 0.0 0.0 xyz
      dof rx ry rz
   end
   begin
      id 30
      name RightToeBase
      direction 0.000000 0.000000 1.000000
      length 2.952750
      axis 0.0 0.0 0.0 xyz
      dof rx ry rz
   end
:hierarchy
   begin
      root Spine_dum LeftUpLeg_dum RightUpLeg_dum
      Spine_dum Spine
      LeftUpLeg_dum LeftUpLeg
      RightUpLeg_dum RightUpLeg
      Spine Spine_dum1 Spine_dum2 Spine_dum3
      Spine_dum1 Head
      Spine_dum2 LeftShoulder
      Spine_dum3 RightShoulder
      LeftShoulder LeftArm
      LeftArm LeftForeArm
      LeftForeArm LeftHand
      LeftHand LeftHand_dum1 LeftHand_dum2
      LeftHand_dum1 LeftHandThumb1
      RightShoulder RightArm
      RightArm RightForeArm
      RightForeArm RightHand
      RightHand RightHand_dum1 RightHand_dum2
      RightHand_dum1 RightHandThumb1
      LeftUpLeg LeftLeg
      LeftLeg LeftFoot
      LeftFoot LeftToeBase
      RightUpLeg RightLeg
      RightLeg RightFoot
      RightFoot RightToeBase
   end

# File created by Blade
# Date/Time:  Tue Jan 27 18:35:03 2015
# Frame Rate: 120.000 fps
#------------------------------------------------------
:FULLY-SPECIFIED
:DEGREES
300
root -3.350425 31.403288 -2.342527 -7.096550 4.273776 -13.581524
Spine 15.889068 -5.879219 2.307738
Head -2.686187 7.043109 14.351753
LeftShoulder -16.052853 14.523382 17.348345
LeftArm 23.302914 -36.873672 -73.141640
LeftForeArm 126.833985 -0.000000 135.728648
LeftHand 6.226223 -0.000000 -6.370117
LeftHandThumb1 -26.253704 0.000000 33.147579
RightShoulder -12.108736 -3.847714 -8.933910
RightArm 11.091770 -34.910020 74.733662
RightForeArm -25.907143 -0.000000 27.354055
RightHand -14.446824 -0.000000 11.730188
RightHandThumb1 -24.326973 -0.000000 -32.862282
LeftUpLeg -8.015661 5.969416 5.973832
LeftLeg 35.450945 -0.000000 -0.000000
LeftFoot -33.202787 19.856107 -19.881484
LeftToeBase 9.303120 -0.000000 -0.000000
RightUpLeg -108.061777 -7.065662 15.179817
RightLeg 96.181532 -0.000000 -0.000000
RightFoot -7.482010 -12.515751 15.058832
RightToeBase 3.043259 -0.000000 -0.000000
301
root -3.348750 31.399838 -2.345556 -7.057245 4.244879 -13.604214
Spine 15.814367 -5.897182 2.337983
Head -2.584681 7.038817 14.364520
LeftShoulder -16.080251 14.548204 17.319628
LeftArm 23.309273 -36.819632 -73.012145
LeftForeArm 126.778731 -0.000000 135.736279
LeftHand 6.327842 -0.000000 -6.493842
LeftHandThumb1 -26.253704 0.000000 33.147579
RightShoulder -12.072033 -3.831435 -8.938208
RightArm 11.161620 -34.950126 74.684222
RightForeArm -25.850573 -0.000000 27.290806
RightHand -14.429194 -0.000000 11.524550
RightHandThumb1 -24.326973 -0.000000 -32.862282
LeftUpLeg -8.076514 5.939332 5.975424
LeftLeg 35.490012 -0.000000 -0.000000
LeftFoot -33.235447 19.955789 -19.854435
LeftToeBase 9.299533 -0.000000 -0.000000
RightUpLeg -108.043071 -7.012073 15.179484
RightLeg 96.113594 -0.000000 -0.000000
RightFoot -7.471838 -12.503924 15.169909
RightToeBase 2.936067 -0.000000 -0.000000
302
root -3.348536 31.397907 -2.346390 -7.067530 4.186584 -13.611089
Spine 15.803262 -5.860810 2.337837
Head -2.495420 7.009522 14.399130
LeftShoulder -16.086856 14.562568 17.304382
LeftArm 23.339648 -36.798511 -72.899689
LeftForeArm 126.725570 -0.000000 135.736758
LeftHand 6.387407 -0.000000 -6.549746
LeftHandThumb1 -26.253704 0.000000 33.147579
RightShoulder -12.053156 -3.779359 -8.934646
RightArm 11.192913 -34.988670 74.658867
RightForeArm -25.799295 -0.000000 27.248484
RightHand -14.408325 -0.000000 11.549508
RightHandThumb1 -24.326973 -0.000000 -32.862282
LeftUpLeg -8.060619 5.934433 5.972724
LeftLeg 35.491544 -0.000000 -0.000000
LeftFoot -33.245693 20.058130 -19.813184
LeftToeBase 9.197260 -0.000000 -0.000000
RightUpLeg -107.954951 -6.934237 15.150383
RightLeg 96.050145 -0.000000 -0.000000
RightFoot -7.478521 -12.444319 15.312783
RightToeBase 3.180381 -0.000000 -0.000000
303
root -3.344398 31.394251 -2.350847 -7.004399 4.184845 -13.622957
Spine 15.699319 -5.899084 2.366514
Head -2.383762 6.989861 14.370017
LeftShoulder -16.095125 14.550636 17.237422
LeftArm 23.321693 -36.814938 -72.700788
LeftForeArm 126.659428 -0.000000 135.730315
LeftHand 6.416335 -0.000000 -6.538322
LeftHandThumb1 -26.253704 0.000000 33.147579
RightShoulder -12.027136 -3.745869 -8.967819
RightArm 11.231775 -35.023453 74.646721
RightForeArm -25.793605 -0.000000 27.215558
RightHand -14.372760 -0.000000 11.568536
RightHandThumb1 -24.326973 -0.000000 -32.862282
LeftUpLeg -8.147137 5.857061 5.948891
LeftLeg 35.512081 -0.000000 -0.000000
LeftFoot -33.260422 20.205260 -19.794606
LeftToeBase 9.189300 -0.000000 -0.000000
RightUpLeg -107.960469 -6.912004 15.152564
RightLeg 95.979573 -0.000000 -0.000000
RightFoot -7.392601 -12.405728 15.292756
RightToeBase 2.990574 -0.000000 -0.000000
304
root -3.341197 31.392217 -2.353229 -6.983485 4.163601 -13.629462
Spine 15.643851 -5.900585 2.376941
Head -2.267245 6.957906 14.382219
LeftShoulder -16.106449 14.595551 17.218642
LeftArm 23.376369 -36.794022 -72.662027
LeftForeArm 126.527093 0.000000 135.705188
LeftHand 6.210312 0.000000 -6.285210
LeftHandThumb1 -26.253704 0.000000 33.147579
RightShoulder -12.006687 -3.695546 -8.983115
RightArm 11.216879 -34.939300 74.690793
RightForeArm -25.925150 -0.000000 27.206396
RightHand -14.344579 -0.000000 11.615073
RightHandThumb1 -24.326973 -0.000000 -32.862282
LeftUpLeg -8.171873 5.815901 5.933801
LeftLeg 35.519671 -0.000000 -0.000000
LeftFoot -33.293443 20.268182 -19.803490
LeftToeBase 9.147340 -0.000000 -0.000000
RightUpLeg -107.913302 -6.888969 15.156740
RightLeg 95.906155 -0.000000 -0.000000
RightFoot -7.358625 -12.357048 15.304135
RightToeBase 3.017088 -0.000000 -0.000000
305
root -3.338507 31.390982 -2.355225 -6.968321 4.148894 -13.632650
Spine 15.595874 -5.910220 2.382907
Head -2.144571 6.926336 14.379312
LeftShoulder -16.117711 14.636267 17.196388
LeftArm 23.419735 -36.779096 -72.612496
LeftForeArm 126.508781 -0.000000 135.654321
LeftHand 6.193908 -0.000000 -6.227209
LeftHandThumb1 -26.253704 0.000000 33.147579
RightShoulder -11.984471 -3.642409 -9.018128
RightArm 11.211766 -34.925776 74.721244
RightForeArm -25.983421 -0.000000 27.223499
RightHand -14.549208 -0.000000 11.612796
RightHandThumb1 -24.326973 -0.000000 -32.862282
LeftUpLeg -8.187468 5.795709 5.921106
LeftLeg 35.513460 -0.000000 -0.000000
LeftFoot -33.304936 20.335021 -19.793974
LeftToeBase 9.143259 -0.000000 -0.000000
RightUpLeg -107.854001 -6.866420 15.142177
RightLeg 95.841035 -0.000000 -0.000000
RightFoot -7.310993 -12.298510 15.337095
RightToeBase 3.040156 -0.000000 -0.000000
306
root -3.334694 31.391137 -2.357582 -6.950397 4.133297 -13.638382
Spine 15.547650 -5.925432 2.390089
Head -2.024516 6.898266 14.380243
LeftShoulder -16.130672 14.650910 17.188884
LeftArm 23.428440 -36.751252 -72.583915
LeftForeArm 126.513424 -0.000000 135.600581
LeftHand 6.193007 0.000000 -6.209284
LeftHandThumb1 -26.253704 0.000000 33.147579
RightShoulder -11.954960 -3.611599 -9.044544
RightArm 11.259837 -34.909639 74.701715
RightForeArm -25.722557 -0.000000 27.207955
RightHand -14.410852 0.000000 11.547978
RightHandThumb1 -24.326973 -0.000000 -32.862282
LeftUpLeg -8.196202 5.785260 5.916100
LeftLeg 35.487498 -0.000000 -0.000000
LeftFoot -33.302757 20.376515 -19.785671
LeftToeBase 9.144260 -0.000000 -0.000000
RightUpLeg -107.784884 -6.843313 15.148629
RightLeg 95.752652 -0.000000 -0.000000
RightFoot -7.233846 -12.301920 15.263893
RightToeBase 2.858590 -0.000000 -0.000000
307
root -3.333484 31.391978 -2.359156 -6.937452 4.118738 -13.652218
Spine 15.498083 -5.926820 2.403799
Head -1.893341 6.851106 14.386667
LeftShoulder -16.114299 14.660063 17.189747
LeftArm 23.413277 -36.732644 -72.555727
LeftForeArm 126.549283 -0.000000 135.529146
LeftHand 6.169382 -0.000000 -6.160641
LeftHandThumb1 -26.253704 0.000000 33.147579
RightShoulder -11.928007 -3.584162 -9.071861
RightArm 11.297494 -34.955174 74.678640
RightForeArm -25.805701 -0.000000 27.239236
RightHand -14.484100 -0.000000 11.649698
RightHandThumb1 -24.326973 -0.000000 -32.862282
LeftUpLeg -8.203009 5.830551 5.937251
LeftLeg 35.477516 -0.000000 -0.000000
LeftFoot -33.317189 20.317935 -19.789582
LeftToeBase 9.230195 -0.000000 -0.000000
RightUpLeg -107.709540 -6.821687 15.142821
RightLeg 95.684389 -0.000000 -0.000000
RightFoot -7.205705 -12.283333 15.223784
RightToeBase 3.059501 -0.000000 -0.000000
308
root -3.330752 31.394103 -2.358683 -6.938188 4.114776 -13.656599
Spine 15.457198 -5.925231 2.402617
Head -1.751700 6.798749 14.410530
LeftShoulder -16.071812 14.669702 17.201944
LeftArm 23.373671 -36.720668 -72.544302
LeftForeArm 126.657776 -0.000000 135.474121
LeftHand 5.956005 -0.000000 -6.001163
LeftHandThumb1 -26.253704 0.000000 33.147579
RightShoulder -11.911434 -3.583340 -9.088282
RightArm 11.338869 -34.936995 74.661746
RightForeArm -25.856469 -0.000000 27.295037
RightHand -14.487121 -0.000000 11.540150
RightHandThumb1 -24.326973 -0.000000 -32.862282
LeftUpLeg -8.186915 5.895985 5.949790
LeftLeg 35.451422 -0.000000 -0.000000
LeftFoot -33.267091 20.275103 -19.737859
LeftToeBase 9.137001 -0.000000 -0.000000
RightUpLeg -107.626748 -6.838052 15.135986
RightLeg 95.637428 -0.000000 -0.000000
RightFoot -7.136753 -12.206829 15.188283
RightToeBase 3.169086 -0.000000 -0.000000
309
root -3.327781 31.397629 -2.358761 -6.935658 4.107724 -13.655741
Spine 15.418520 -5.926099 2.388453
Head -1.620180 6.756370 14.453190
LeftShoulder -16.052540 14.675577 17.223752
LeftArm 23.321910 -36.670612 -72.570713
LeftForeArm 126.897088 -0.000000 135.392626
LeftHand 5.952464 -0.000000 -6.195517
LeftHandThumb1 -26.253704 0.000000 33.147579
RightShoulder -11.896351 -3.570080 -9.099401
RightArm 11.384280 -34.912545 74.638780
RightForeArm -25.778421 -0.000000 27.351484
RightHand -14.589221 -0.000000 11.345296
RightHandThumb1 -24.326973 -0.000000 -32.862282
LeftUpLeg -8.165287 6.009948 5.965371
LeftLeg 35.405574 -0.000000 -0.000000
LeftFoot -33.211266 20.181897 -19.668662
LeftToeBase 9.161987 -0.000000 -0.000000
RightUpLeg -107.540129 -6.847266 15.108417
RightLeg 95.594182 -0.000000 -0.000000
RightFoot -7.067615 -12.152401 15.164691
RightToeBase 3.040493 -0.000000 -0.000000
